<?xml version="1.0" encoding="UTF-8"?>
<svg width="26px" height="25px" viewBox="0 0 26 25" version="1.1" xmlns="http://www.w3.org/2000/svg" xmlns:xlink="http://www.w3.org/1999/xlink">
    <title>link icon</title>
    <g id="Page-1" stroke="none" stroke-width="1" fill="none" fill-rule="evenodd">
        <g id="Artboard" transform="translate(-219.000000, -540.000000)" fill="#395687" fill-rule="nonzero">
            <g id="link-icon" transform="translate(219.000000, 540.851913)">
                <path d="M12.8756104,11.3438883 C13.729912,12.1891693 14.2615967,13.2020426 14.3011475,14.4019937 C14.3406982,15.6019449 14.1550293,15.8108072 13.0001221,17.0194254 L9.74279785,20.1331949 C8.57120321,21.2559273 7.4847284,21.6628394 5.88439941,21.2517252 C4.28379846,20.8408298 3.36787565,20.0138433 2.93908691,18.4799967 C2.51009692,16.9463585 3.1066221,15.642646 4.27819824,14.5199137 L6.53063965,12.3448648 C6.82364438,12.0642834 7.0111084,11.1352701 6.4967041,10.5046549 C5.9822998,9.87403963 4.78624226,10.1346147 4.49322121,10.4151956 L2.03357415,12.7718442 C0.278711512,14.4563337 -0.405892701,16.9097273 0.237698356,19.2088292 C0.881289414,21.5078269 2.75511196,23.3035523 5.15421838,23.9203019 C7.55327041,24.5370515 10.1134378,23.8810039 11.8713465,22.1993245 L15.1502776,19.0567268 C16.4546482,17.8065475 17.4205322,16.1030074 17.4205322,14.3352213 C17.4205322,12.5674351 16.4546482,10.8799471 15.1502776,9.62971563 C14.9329133,9.4214167 13.9190674,8.54701327 12.9992676,9.3026285 C12.0794678,10.0582437 12.4825439,10.9549722 12.8756104,11.3438883 Z" id="Path"></path>
                <path d="M20.4871826,2.34339998 C21.3414843,3.18868105 21.8731689,4.20155428 21.9127197,5.40150545 C21.9522705,6.60145662 21.7666016,6.81031893 20.6116943,8.01893709 L17.3543701,11.1327066 C16.1827755,12.255439 15.0963007,12.6623512 13.4959717,12.2512369 C11.8953707,11.8403416 10.9794479,11.013355 10.5506592,9.47950838 C10.1216692,7.94587025 10.7181944,6.64215774 11.8897705,5.51942537 L14.1422119,3.34437655 C14.4352166,3.0637951 14.6226807,2.13478182 14.1082764,1.50416659 C13.5938721,0.873551351 12.3978145,1.13412644 12.1047935,1.41470737 L9.64514641,3.77135591 C7.89028378,5.4558454 7.20567956,7.90923897 7.84927062,10.2083409 C8.49286168,12.5073386 10.3666842,14.303064 12.7657906,14.9198136 C15.1648427,15.5365632 17.72501,14.8805156 19.4829187,13.1988362 L22.7618498,10.0562385 C24.0662205,8.80605918 25.0321045,7.10251912 25.0321045,5.33473299 C25.0321045,3.56694686 24.0662205,1.87945883 22.7618498,0.629227352 C22.5444855,0.420928415 21.5306396,-0.453475016 20.6108398,0.302140218 C19.69104,1.05775545 20.0941162,1.95448397 20.4871826,2.34339998 Z" id="Path" transform="translate(16.321838, 7.573800) rotate(-180.000000) translate(-16.321838, -7.573800) "></path>
            </g>
        </g>
    </g>
</svg>