<?xml version="1.0" encoding="UTF-8"?>
<svg width="27px" height="22px" viewBox="0 0 27 22" version="1.1" xmlns="http://www.w3.org/2000/svg" xmlns:xlink="http://www.w3.org/1999/xlink">
    <title>Shape</title>
    <g id="Page-1" stroke="none" stroke-width="1" fill="none" fill-rule="evenodd">
        <g id="Artboard" transform="translate(-62.000000, -1374.000000)" fill="#395687" fill-rule="nonzero">
            <g id="blockquote" transform="translate(47.000000, 1356.000000)">
                <path d="M30.1298828,39.6225586 L30.1298828,33.7460938 C30.1298828,30.6660156 30.5013835,28.1398112 31.2443848,26.1674805 C31.9873861,24.1951497 33.2504883,22.5200195 35.0336914,21.1420898 C36.8168945,19.7641602 38.8432617,18.8455404 41.112793,18.3862305 L41.112793,23.0874023 C39.5187174,24.0060221 38.6136068,25.2353516 38.3974609,26.7753906 L41.112793,26.7753906 L41.112793,39.6225586 L30.1298828,39.6225586 Z M15.4589844,39.6225586 L15.4589844,33.7460938 C15.4589844,30.6660156 15.830485,28.1398112 16.5734863,26.1674805 C17.3164876,24.1951497 18.5863444,22.5200195 20.3830566,21.1420898 C22.1797689,19.7641602 24.1993815,18.8455404 26.4418945,18.3862305 L26.4418945,23.0874023 C24.847819,24.0060221 23.9427083,25.2353516 23.7265625,26.7753906 L26.4418945,26.7753906 L26.4418945,39.6225586 L15.4589844,39.6225586 Z" id="Shape"></path>
            </g>
        </g>
    </g>
</svg>