<?xml version="1.0" encoding="UTF-8"?>
<svg width="21px" height="16px" viewBox="0 0 21 16" version="1.1" xmlns="http://www.w3.org/2000/svg" xmlns:xlink="http://www.w3.org/1999/xlink">
    <title>swipe icon</title>
    <g id="Page-1" stroke="none" stroke-width="1" fill="none" fill-rule="evenodd">
        <g id="Artboard" transform="translate(-350.000000, -355.000000)" fill="#000000" fill-rule="nonzero">
            <g id="Group" transform="translate(350.000000, 355.000000)">
                <path d="M9.43253761,16 C8.14542452,16 7.05803243,14.9156523 7.05803243,13.6321429 L7.05803243,11.1795893 C6.86079439,11.2183516 6.64780242,11.2415179 6.41874258,11.2415179 C5.05129016,11.2415179 4.0442374,10.243375 4.0442374,8.62321429 C4.0442374,7.33358594 5.42947007,7.00094754 6.29273969,6.46860658 C6.64697477,6.24846987 6.95817193,5.98493192 7.24177119,5.73289174 L7.24593799,5.7291635 L7.25016187,5.72549219 C7.74889357,5.28945927 7.92564009,5.06468359 7.92564009,4.8664894 L7.92564009,4.79024554 C7.78431137,4.62668695 7.69732229,4.40501339 7.69732229,4.16071429 L7.69732229,2.33928571 C7.69732229,1.83631529 8.06531351,1.42857143 8.51926639,1.42857143 L15.0948192,1.42857143 C15.548772,1.42857143 15.9167633,1.83631529 15.9167633,2.33928571 L15.9167633,4.16074274 C15.9167633,4.40504185 15.8297742,4.6267154 15.6884455,4.79027399 L15.6884455,4.86651786 C15.6884455,5.68297321 16.8300345,6.77722489 16.8300345,8.48660714 L16.8300345,9.09277286 C16.8300345,10.872707 15.7267458,11.9046317 14.2287812,11.9370474 C13.7204031,12.2922829 13.0647885,12.4633264 12.4367433,12.3919777 C12.2372117,12.493344 12.025636,12.5691638 11.8070428,12.6176356 L11.8070428,13.6321429 C11.8070428,14.9252148 10.7344057,16 9.43253761,16 Z M9.43253761,14.6339286 C9.9740789,14.6339286 10.437136,14.172168 10.437136,13.6321429 L10.437136,11.0415876 C10.8557852,11.4069263 11.6593497,11.451836 12.1794862,10.9007115 C12.7401777,11.2202014 13.4815827,10.9487232 13.709929,10.5328683 C14.8266314,10.7185117 15.4601277,10.2460787 15.4601277,9.09277286 L15.4601277,8.48660714 C15.4601277,7.19194141 14.4351805,6.28922433 14.327757,5.07142857 L9.28330339,5.07142857 C9.19874018,5.78972601 8.67763333,6.29423326 8.15324441,6.75269253 C7.79221688,7.07357701 7.43118935,7.37098214 7.01522285,7.62922653 C6.34773574,8.04135322 5.41414424,8.37293859 5.41414424,8.62321429 C5.41414424,9.2884626 5.66529382,9.87544643 6.41874258,9.87544643 C7.42334092,9.87544643 7.93348852,9.12410714 8.42793927,9.12410714 L8.42793927,13.6321429 C8.42793927,14.1565151 8.89884474,14.6339286 9.43253761,14.6339286 Z M13.4052674,3.25 C13.4052674,3.62723493 13.7119268,3.93303571 14.0902208,3.93303571 C14.4685149,3.93303571 14.7751743,3.62723493 14.7751743,3.25 C14.7751743,2.87276506 14.4685149,2.56696429 14.0902208,2.56696429 C13.7119268,2.56696429 13.4052674,2.87276506 13.4052674,3.25 Z" id="Shape" transform="translate(10.437136, 8.714286) rotate(-180.000000) translate(-10.437136, -8.714286) "></path>
                <path d="M18.3621952,0.197949432 C18.228243,0.0377716371 18.015019,-0.0331640247 17.8114564,0.0147288599 C17.6078937,0.0626217445 17.4489524,0.221118001 17.4009251,0.424110743 C17.3528977,0.627103486 17.4240326,0.839730527 17.5846601,0.97330768 L19.1162545,2.50526618 L15.5277664,2.50526618 C15.23383,2.52081755 15.0034921,2.76302021 15.0034921,3.0565459 C15.0034921,3.35007158 15.23383,3.59227424 15.5277664,3.60782561 L19.1162545,3.60782561 L17.5784398,5.13513196 C17.3707013,5.35207423 17.3707013,5.69354794 17.5784398,5.91049021 C17.6814351,6.01351989 17.821321,6.07142857 17.9672074,6.07142857 C18.1130937,6.07142857 18.2529797,6.01351989 18.355975,5.91049021 L20.8346072,3.43879751 C20.9402861,3.3373588 21,3.19739005 21,3.05111839 C21,2.90484673 20.9402861,2.76487798 20.8346072,2.66343926 L18.3621952,0.197949432 Z" id="Path"></path>
                <path d="M5.35870318,0.197949432 C5.22475099,0.0377716371 5.01152697,-0.0331640247 4.80796431,0.0147288599 C4.60440164,0.0626217445 4.44546038,0.221118001 4.39743303,0.424110743 C4.34940569,0.627103486 4.42054051,0.839730527 4.58116802,0.97330768 L6.11276246,2.50526618 L0.524274327,2.50526618 C0.230337947,2.52081755 0,2.76302021 0,3.0565459 C0,3.35007158 0.230337947,3.59227424 0.524274327,3.60782561 L6.11276246,3.60782561 L4.57494774,5.13513196 C4.36720919,5.35207423 4.36720919,5.69354794 4.57494774,5.91049021 C4.677943,6.01351989 4.81782896,6.07142857 4.96371532,6.07142857 C5.10960167,6.07142857 5.24948764,6.01351989 5.35248289,5.91049021 L7.83111515,3.43879751 C7.93679407,3.3373588 7.99650794,3.19739005 7.99650794,3.05111839 C7.99650794,2.90484673 7.93679407,2.76487798 7.83111515,2.66343926 L5.35870318,0.197949432 Z" id="Path-Copy" transform="translate(3.998254, 3.035714) rotate(-180.000000) translate(-3.998254, -3.035714) "></path>
            </g>
        </g>
    </g>
</svg>