<?xml version="1.0" encoding="UTF-8"?>
<svg width="161px" height="58px" viewBox="0 0 161 58" version="1.1" xmlns="http://www.w3.org/2000/svg" xmlns:xlink="http://www.w3.org/1999/xlink">
    <!-- Generator: Sketch 63.1 (92452) - https://sketch.com -->
    <title>logo outlined</title>
    <desc>Created with Sketch.</desc>
    <g id="logo-outlined" stroke="none" stroke-width="1" fill="none" fill-rule="evenodd">
        <g id="logo2" transform="translate(1.000000, 0.000000)" fill-rule="nonzero">
            <path d="M152.65,35.9 C153.616667,35.9 154.266667,35.775 154.6,35.525 C154.933333,35.275 155.133333,34.8666667 155.2,34.3 L155.2,34.3 L157.7,13.3 C157.7,12.8333333 157.441667,12.4833333 156.925,12.25 C156.408333,12.0166667 155.666667,11.9 154.7,11.9 L154.7,11.9 L152.55,11.9 C150.55,11.9 149.55,12.4333333 149.55,13.5 L149.55,13.5 L149.55,34.3 C149.55,34.8666667 149.733333,35.275 150.1,35.525 C150.466667,35.775 151.133333,35.9 152.1,35.9 L152.1,35.9 L152.65,35.9 Z M153.15,47.1 C155.15,47.1 156.15,46.5666667 156.15,45.5 L156.15,45.5 L156.15,40.9 C156.15,39.8333333 155.15,39.3 153.15,39.3 L153.15,39.3 L151.55,39.3 C149.55,39.3 148.55,39.8333333 148.55,40.9 L148.55,40.9 L148.55,45.5 C148.55,46.5666667 149.55,47.1 151.55,47.1 L151.55,47.1 L153.15,47.1 Z" id="!" fill="#3F00F0"></path>
            <path d="M2.26,25.04 C3.06,25.04 3.46,24.8266667 3.46,24.4 L3.46,24.4 L3.46,19.52 L4.24,19.52 C4.84,19.52 5.27,19.61 5.53,19.79 C5.79,19.97 6.03333333,20.28 6.26,20.72 L6.26,20.72 L7.84,24.62 C7.96,24.9 8.34666667,25.04 9,25.04 L9,25.04 L9.82,25.04 C10.22,25.04 10.52,25.0033333 10.72,24.93 C10.92,24.8566667 11.02,24.76 11.02,24.64 C11.02,24.56 10.9866667,24.4333333 10.92,24.26 L10.92,24.26 L9.16,19.86 C8.98666667,19.4333333 8.76666667,19.0433333 8.5,18.69 C8.23333333,18.3366667 7.97333333,18.1133333 7.72,18.02 L7.72,18.02 L7.72,17.94 C8.44,17.6733333 9.01,17.2633333 9.43,16.71 C9.85,16.1566667 10.06,15.5066667 10.06,14.76 C10.06,12.2533333 8.4,11 5.08,11 L5.08,11 L1.18,11 C0.9,11 0.696666667,11.0633333 0.57,11.19 C0.443333333,11.3166667 0.38,11.52 0.38,11.8 L0.38,11.8 L0.38,24.4 C0.38,24.8266667 0.78,25.04 1.58,25.04 L1.58,25.04 L2.26,25.04 Z M5.36,16.86 L3.46,16.86 L3.46,13.62 L5.22,13.62 C5.74,13.62 6.15,13.7566667 6.45,14.03 C6.75,14.3033333 6.9,14.6733333 6.9,15.14 C6.9,15.62 6.74666667,16.0266667 6.44,16.36 C6.13333333,16.6933333 5.77333333,16.86 5.36,16.86 L5.36,16.86 Z M20.58,25 C20.7933333,25 20.9466667,24.92 21.04,24.76 C21.1333333,24.6 21.18,24.3466667 21.18,24 L21.18,24 L21.18,23.38 C21.18,23.0333333 21.1333333,22.78 21.04,22.62 C20.9466667,22.46 20.7933333,22.38 20.58,22.38 L20.58,22.38 L15.82,22.38 L15.82,19.14 L20.02,19.14 C20.2333333,19.14 20.3866667,19.06 20.48,18.9 C20.5733333,18.74 20.62,18.4866667 20.62,18.14 L20.62,18.14 L20.62,17.52 C20.62,17.1733333 20.5733333,16.92 20.48,16.76 C20.3866667,16.6 20.2333333,16.52 20.02,16.52 L20.02,16.52 L15.82,16.52 L15.82,13.62 L20.56,13.62 C20.7733333,13.62 20.9266667,13.54 21.02,13.38 C21.1133333,13.22 21.16,12.9666667 21.16,12.62 L21.16,12.62 L21.16,12 C21.16,11.6533333 21.1133333,11.4 21.02,11.24 C20.9266667,11.08 20.7733333,11 20.56,11 L20.56,11 L13.54,11 C13.26,11 13.0566667,11.0633333 12.93,11.19 C12.8033333,11.3166667 12.74,11.52 12.74,11.8 L12.74,11.8 L12.74,24.2 C12.74,24.48 12.8033333,24.6833333 12.93,24.81 C13.0566667,24.9366667 13.26,25 13.54,25 L13.54,25 L20.58,25 Z M27.96,25.04 C28.76,25.04 29.16,24.8266667 29.16,24.4 L29.16,24.4 L29.16,13.62 L32.34,13.62 C32.5533333,13.62 32.7066667,13.54 32.8,13.38 C32.8933333,13.22 32.94,12.9666667 32.94,12.62 L32.94,12.62 L32.94,12 C32.94,11.6533333 32.8933333,11.4 32.8,11.24 C32.7066667,11.08 32.5533333,11 32.34,11 L32.34,11 L22.88,11 C22.6666667,11 22.5133333,11.08 22.42,11.24 C22.3266667,11.4 22.28,11.6533333 22.28,12 L22.28,12 L22.28,12.62 C22.28,12.9666667 22.3266667,13.22 22.42,13.38 C22.5133333,13.54 22.6666667,13.62 22.88,13.62 L22.88,13.62 L26.06,13.62 L26.06,24.4 C26.06,24.8266667 26.46,25.04 27.26,25.04 L27.26,25.04 L27.96,25.04 Z M34.32,25.04 C34.84,25.04 35.1466667,24.9 35.24,24.62 L35.24,24.62 L36.04,22.18 L40.76,22.18 L41.56,24.62 C41.6533333,24.9 42.0266667,25.04 42.68,25.04 L42.68,25.04 L43.56,25.04 C44.2266667,25.04 44.56,24.8933333 44.56,24.6 C44.56,24.4933333 44.54,24.3733333 44.5,24.24 L44.5,24.24 L40.1,11.38 C40.0066667,11.1 39.6266667,10.96 38.96,10.96 L38.96,10.96 L37.92,10.96 C37.2666667,10.96 36.8866667,11.1 36.78,11.38 L36.78,11.38 L32.38,24.24 C32.3266667,24.4266667 32.3,24.5466667 32.3,24.6 C32.3,24.8933333 32.7066667,25.04 33.52,25.04 L33.52,25.04 L34.32,25.04 Z M39.9,19.54 L36.9,19.54 L38.08,15.98 C38.1733333,15.7533333 38.2433333,15.5033333 38.29,15.23 C38.3366667,14.9566667 38.3666667,14.78 38.38,14.7 L38.38,14.7 L38.46,14.7 C38.5666667,15.2866667 38.6666667,15.7133333 38.76,15.98 L38.76,15.98 L39.9,19.54 Z M47.74,25.06 C48.54,25.06 48.94,24.84 48.94,24.4 L48.94,24.4 L48.94,11.6 C48.94,11.16 48.54,10.94 47.74,10.94 L47.74,10.94 L47.04,10.94 C46.24,10.94 45.84,11.16 45.84,11.6 L45.84,11.6 L45.84,24.4 C45.84,24.84 46.24,25.06 47.04,25.06 L47.04,25.06 L47.74,25.06 Z M59.14,25 C59.3533333,25 59.5066667,24.92 59.6,24.76 C59.6933333,24.6 59.74,24.3466667 59.74,24 L59.74,24 L59.74,23.38 C59.74,23.0333333 59.6933333,22.78 59.6,22.62 C59.5066667,22.46 59.3533333,22.38 59.14,22.38 L59.14,22.38 L54.82,22.38 L54.82,11.6 C54.82,11.1733333 54.42,10.96 53.62,10.96 L53.62,10.96 L52.94,10.96 C52.14,10.96 51.74,11.1733333 51.74,11.6 L51.74,11.6 L51.74,24.2 C51.74,24.48 51.8033333,24.6833333 51.93,24.81 C52.0566667,24.9366667 52.26,25 52.54,25 L52.54,25 L59.14,25 Z M70.64,25.04 C71.3066667,25.04 71.6866667,24.86 71.78,24.5 L71.78,24.5 L73.3,18.26 C73.38,17.9133333 73.5266667,17.0733333 73.74,15.74 L73.74,15.74 L73.82,15.74 L74.24,18.26 L75.72,24.52 C75.7866667,24.8666667 76.16,25.04 76.84,25.04 L76.84,25.04 L78.3,25.04 C78.9666667,25.04 79.3466667,24.8666667 79.44,24.52 L79.44,24.52 L82.66,11.78 C82.6866667,11.7 82.7,11.6 82.7,11.48 C82.7,11.1333333 82.2866667,10.96 81.46,10.96 L81.46,10.96 L81.24,10.96 C80.44,10.96 79.9933333,11.1666667 79.9,11.58 L79.9,11.58 L78.36,17.98 C78.2133333,18.5933333 78.0766667,19.2666667 77.95,20 C77.8233333,20.7333333 77.7333333,21.3466667 77.68,21.84 L77.68,21.84 L77.6,21.84 C77.5733333,21.4133333 77.5,20.8366667 77.38,20.11 C77.26,19.3833333 77.1266667,18.6866667 76.98,18.02 L76.98,18.02 L75.4,11.38 C75.36,11.22 75.25,11.11 75.07,11.05 C74.89,10.99 74.6333333,10.96 74.3,10.96 L74.3,10.96 L73.54,10.96 C73.2066667,10.96 72.95,10.99 72.77,11.05 C72.59,11.11 72.48,11.22 72.44,11.38 L72.44,11.38 L70.8,18 C70.68,18.4666667 70.5533333,19.0666667 70.42,19.8 C70.2866667,20.5333333 70.18,21.2133333 70.1,21.84 L70.1,21.84 L70.02,21.84 C69.9933333,21.2933333 69.93,20.6566667 69.83,19.93 C69.73,19.2033333 69.62,18.5666667 69.5,18.02 L69.5,18.02 L68,11.58 C67.9066667,11.1666667 67.46,10.96 66.66,10.96 L66.66,10.96 L66.14,10.96 C65.3133333,10.96 64.9,11.1333333 64.9,11.48 C64.9,11.52 64.9133333,11.62 64.94,11.78 L64.94,11.78 L68.08,24.52 C68.1333333,24.7066667 68.25,24.84 68.43,24.92 C68.61,25 68.8666667,25.04 69.2,25.04 L69.2,25.04 L70.64,25.04 Z M90.02,25.16 C92.0866667,25.16 93.67,24.5433333 94.77,23.31 C95.87,22.0766667 96.42,20.3066667 96.42,18 C96.42,15.6933333 95.87,13.9233333 94.77,12.69 C93.67,11.4566667 92.0866667,10.84 90.02,10.84 C87.9533333,10.84 86.3666667,11.4566667 85.26,12.69 C84.1533333,13.9233333 83.6,15.6933333 83.6,18 C83.6,20.3066667 84.1533333,22.0766667 85.26,23.31 C86.3666667,24.5433333 87.9533333,25.16 90.02,25.16 Z M90.02,22.54 C88.9533333,22.54 88.1433333,22.1533333 87.59,21.38 C87.0366667,20.6066667 86.76,19.48 86.76,18 C86.76,16.52 87.0366667,15.3966667 87.59,14.63 C88.1433333,13.8633333 88.9533333,13.48 90.02,13.48 C91.0866667,13.48 91.8933333,13.8633333 92.44,14.63 C92.9866667,15.3966667 93.26,16.52 93.26,18 C93.26,19.48 92.9866667,20.6066667 92.44,21.38 C91.8933333,22.1533333 91.0866667,22.54 90.02,22.54 Z M100.58,25.04 C101.38,25.04 101.78,24.8266667 101.78,24.4 L101.78,24.4 L101.78,19.52 L102.56,19.52 C103.16,19.52 103.59,19.61 103.85,19.79 C104.11,19.97 104.353333,20.28 104.58,20.72 L104.58,20.72 L106.16,24.62 C106.28,24.9 106.666667,25.04 107.32,25.04 L107.32,25.04 L108.14,25.04 C108.54,25.04 108.84,25.0033333 109.04,24.93 C109.24,24.8566667 109.34,24.76 109.34,24.64 C109.34,24.56 109.306667,24.4333333 109.24,24.26 L109.24,24.26 L107.48,19.86 C107.306667,19.4333333 107.086667,19.0433333 106.82,18.69 C106.553333,18.3366667 106.293333,18.1133333 106.04,18.02 L106.04,18.02 L106.04,17.94 C106.76,17.6733333 107.33,17.2633333 107.75,16.71 C108.17,16.1566667 108.38,15.5066667 108.38,14.76 C108.38,12.2533333 106.72,11 103.4,11 L103.4,11 L99.5,11 C99.22,11 99.0166667,11.0633333 98.89,11.19 C98.7633333,11.3166667 98.7,11.52 98.7,11.8 L98.7,11.8 L98.7,24.4 C98.7,24.8266667 99.1,25.04 99.9,25.04 L99.9,25.04 L100.58,25.04 Z M103.68,16.86 L101.78,16.86 L101.78,13.62 L103.54,13.62 C104.06,13.62 104.47,13.7566667 104.77,14.03 C105.07,14.3033333 105.22,14.6733333 105.22,15.14 C105.22,15.62 105.066667,16.0266667 104.76,16.36 C104.453333,16.6933333 104.093333,16.86 103.68,16.86 L103.68,16.86 Z M112.8,25.04 C113.6,25.04 114,24.8266667 114,24.4 L114,24.4 L114,18.6 L114.08,18.58 L117.84,24.66 C117.986667,24.9133333 118.393333,25.04 119.06,25.04 L119.06,25.04 L120.22,25.04 C120.966667,25.04 121.34,24.94 121.34,24.74 C121.34,24.62 121.286667,24.48 121.18,24.32 L121.18,24.32 L116.8,17.6 L120.66,11.68 C120.766667,11.52 120.82,11.38 120.82,11.26 C120.82,11.06 120.446667,10.96 119.7,10.96 L119.7,10.96 L118.76,10.96 C118.106667,10.96 117.706667,11.0866667 117.56,11.34 L117.56,11.34 L114.08,16.98 L114,16.96 L114,11.6 C114,11.1733333 113.6,10.96 112.8,10.96 L112.8,10.96 L112.1,10.96 C111.3,10.96 110.9,11.1733333 110.9,11.6 L110.9,11.6 L110.9,24.4 C110.9,24.8266667 111.3,25.04 112.1,25.04 L112.1,25.04 L112.8,25.04 Z M130.42,25 C130.633333,25 130.786667,24.92 130.88,24.76 C130.973333,24.6 131.02,24.3466667 131.02,24 L131.02,24 L131.02,23.38 C131.02,23.0333333 130.973333,22.78 130.88,22.62 C130.786667,22.46 130.633333,22.38 130.42,22.38 L130.42,22.38 L125.66,22.38 L125.66,19.14 L129.86,19.14 C130.073333,19.14 130.226667,19.06 130.32,18.9 C130.413333,18.74 130.46,18.4866667 130.46,18.14 L130.46,18.14 L130.46,17.52 C130.46,17.1733333 130.413333,16.92 130.32,16.76 C130.226667,16.6 130.073333,16.52 129.86,16.52 L129.86,16.52 L125.66,16.52 L125.66,13.62 L130.4,13.62 C130.613333,13.62 130.766667,13.54 130.86,13.38 C130.953333,13.22 131,12.9666667 131,12.62 L131,12.62 L131,12 C131,11.6533333 130.953333,11.4 130.86,11.24 C130.766667,11.08 130.613333,11 130.4,11 L130.4,11 L123.38,11 C123.1,11 122.896667,11.0633333 122.77,11.19 C122.643333,11.3166667 122.58,11.52 122.58,11.8 L122.58,11.8 L122.58,24.2 C122.58,24.48 122.643333,24.6833333 122.77,24.81 C122.896667,24.9366667 123.1,25 123.38,25 L123.38,25 L130.42,25 Z M135.22,25.04 C136.02,25.04 136.42,24.8266667 136.42,24.4 L136.42,24.4 L136.42,19.52 L137.2,19.52 C137.8,19.52 138.23,19.61 138.49,19.79 C138.75,19.97 138.993333,20.28 139.22,20.72 L139.22,20.72 L140.8,24.62 C140.92,24.9 141.306667,25.04 141.96,25.04 L141.96,25.04 L142.78,25.04 C143.18,25.04 143.48,25.0033333 143.68,24.93 C143.88,24.8566667 143.98,24.76 143.98,24.64 C143.98,24.56 143.946667,24.4333333 143.88,24.26 L143.88,24.26 L142.12,19.86 C141.946667,19.4333333 141.726667,19.0433333 141.46,18.69 C141.193333,18.3366667 140.933333,18.1133333 140.68,18.02 L140.68,18.02 L140.68,17.94 C141.4,17.6733333 141.97,17.2633333 142.39,16.71 C142.81,16.1566667 143.02,15.5066667 143.02,14.76 C143.02,12.2533333 141.36,11 138.04,11 L138.04,11 L134.14,11 C133.86,11 133.656667,11.0633333 133.53,11.19 C133.403333,11.3166667 133.34,11.52 133.34,11.8 L133.34,11.8 L133.34,24.4 C133.34,24.8266667 133.74,25.04 134.54,25.04 L134.54,25.04 L135.22,25.04 Z M138.32,16.86 L136.42,16.86 L136.42,13.62 L138.18,13.62 C138.7,13.62 139.11,13.7566667 139.41,14.03 C139.71,14.3033333 139.86,14.6733333 139.86,15.14 C139.86,15.62 139.706667,16.0266667 139.4,16.36 C139.093333,16.6933333 138.733333,16.86 138.32,16.86 L138.32,16.86 Z" id="RETAILWORKER" fill="#D21A1A"></path>
            <path d="M7.602,46.184 C8.32266667,46.184 9.097,46.1111667 9.925,45.9655 C10.753,45.8198333 11.42,45.6013333 11.926,45.31 C12.4626667,45.0033333 12.731,44.6506667 12.731,44.252 C12.731,44.0986667 12.6658333,43.8571667 12.5355,43.5275 C12.4051667,43.1978333 12.2365,42.9026667 12.0295,42.642 C11.8225,42.3813333 11.604,42.251 11.374,42.251 C11.282,42.251 11.1133333,42.3123333 10.868,42.435 C10.3926667,42.6496667 9.902,42.826 9.396,42.964 C8.89,43.102 8.292,43.171 7.602,43.171 C4.98,43.171 3.669,41.423 3.669,37.927 C3.669,36.1943333 3.99483333,34.8986667 4.6465,34.04 C5.29816667,33.1813333 6.29866667,32.752 7.648,32.752 C8.292,32.752 8.844,32.8056667 9.304,32.913 C9.764,33.0203333 10.155,33.143 10.477,33.281 C10.799,33.419 10.983,33.488 11.029,33.488 C11.213,33.488 11.4238333,33.3538333 11.6615,33.0855 C11.8991667,32.8171667 12.1023333,32.5105 12.271,32.1655 C12.4396667,31.8205 12.524,31.5406667 12.524,31.326 C12.524,31.0653333 12.3246667,30.82 11.926,30.59 C11.4813333,30.3293333 10.8603333,30.1185 10.063,29.9575 C9.26566667,29.7965 8.48366667,29.716 7.717,29.716 C2.59566667,29.716 0.035,32.4453333 0.035,37.904 C0.035,40.7406667 0.652166667,42.8298333 1.8865,44.1715 C3.12083333,45.5131667 5.026,46.184 7.602,46.184 Z M21.195,46.184 C23.5716667,46.184 25.3925,45.4748333 26.6575,44.0565 C27.9225,42.6381667 28.555,40.6026667 28.555,37.95 C28.555,35.2973333 27.9225,33.2618333 26.6575,31.8435 C25.3925,30.4251667 23.5716667,29.716 21.195,29.716 C18.8183333,29.716 16.9936667,30.4251667 15.721,31.8435 C14.4483333,33.2618333 13.812,35.2973333 13.812,37.95 C13.812,40.6026667 14.4483333,42.6381667 15.721,44.0565 C16.9936667,45.4748333 18.8183333,46.184 21.195,46.184 Z M21.195,43.171 C19.9683333,43.171 19.0368333,42.7263333 18.4005,41.837 C17.7641667,40.9476667 17.446,39.652 17.446,37.95 C17.446,36.248 17.7641667,34.9561667 18.4005,34.0745 C19.0368333,33.1928333 19.9683333,32.752 21.195,32.752 C22.4216667,32.752 23.3493333,33.1928333 23.978,34.0745 C24.6066667,34.9561667 24.921,36.248 24.921,37.95 C24.921,39.652 24.6066667,40.9476667 23.978,41.837 C23.3493333,42.7263333 22.4216667,43.171 21.195,43.171 Z M33.224,46.046 C34.144,46.046 34.604,45.8006667 34.604,45.31 L34.604,45.31 L34.604,37.559 C34.604,36.869 34.5886667,36.3476667 34.558,35.995 L34.558,35.995 L34.65,35.972 C34.8953333,36.432 35.1713333,36.8843333 35.478,37.329 L35.478,37.329 L40.768,45.425 C40.9213333,45.6703333 41.1206667,45.8351667 41.366,45.9195 C41.6113333,46.0038333 41.918,46.046 42.286,46.046 L42.286,46.046 L43.16,46.046 C44.08,46.046 44.54,45.8006667 44.54,45.31 L44.54,45.31 L44.54,30.59 C44.54,30.0993333 44.08,29.854 43.16,29.854 L43.16,29.854 L42.493,29.854 C41.573,29.854 41.113,30.0993333 41.113,30.59 L41.113,30.59 L41.1137187,38.4768438 C41.1170729,39.0436979 41.1321667,39.4814167 41.159,39.79 L41.159,39.79 L41.067,39.813 C40.8216667,39.353 40.5456667,38.9006667 40.239,38.456 L40.239,38.456 L35.064,30.475 C34.9106667,30.2296667 34.7113333,30.0648333 34.466,29.9805 C34.2206667,29.8961667 33.914,29.854 33.546,29.854 L33.546,29.854 L32.557,29.854 C31.637,29.854 31.177,30.0993333 31.177,30.59 L31.177,30.59 L31.177,45.31 C31.177,45.8006667 31.637,46.046 32.557,46.046 L32.557,46.046 L33.224,46.046 Z M50.037,46.046 C50.957,46.046 51.417,45.8006667 51.417,45.31 L51.417,45.31 L51.417,39.974 L56.201,39.974 C56.4463333,39.974 56.6226667,39.882 56.73,39.698 C56.8373333,39.514 56.891,39.2226667 56.891,38.824 L56.891,38.824 L56.891,38.111 C56.891,37.7123333 56.8373333,37.421 56.73,37.237 C56.6226667,37.053 56.4463333,36.961 56.201,36.961 L56.201,36.961 L51.417,36.961 L51.417,32.913 L56.362,32.913 C56.6073333,32.913 56.7836667,32.821 56.891,32.637 C56.9983333,32.453 57.052,32.1616667 57.052,31.763 L57.052,31.763 L57.052,31.05 C57.052,30.6513333 56.9983333,30.36 56.891,30.176 C56.7836667,29.992 56.6073333,29.9 56.362,29.9 L56.362,29.9 L48.795,29.9 C48.473,29.9 48.2391667,29.9728333 48.0935,30.1185 C47.9478333,30.2641667 47.875,30.498 47.875,30.82 L47.875,30.82 L47.875,45.31 C47.875,45.8006667 48.335,46.046 49.255,46.046 L49.255,46.046 L50.037,46.046 Z M68.483,46 C68.7283333,46 68.9046667,45.908 69.012,45.724 C69.1193333,45.54 69.173,45.2486667 69.173,44.85 L69.173,44.85 L69.173,44.137 C69.173,43.7383333 69.1193333,43.447 69.012,43.263 C68.9046667,43.079 68.7283333,42.987 68.483,42.987 L68.483,42.987 L63.009,42.987 L63.009,39.261 L67.839,39.261 C68.0843333,39.261 68.2606667,39.169 68.368,38.985 C68.4753333,38.801 68.529,38.5096667 68.529,38.111 L68.529,38.111 L68.529,37.398 C68.529,36.9993333 68.4753333,36.708 68.368,36.524 C68.2606667,36.34 68.0843333,36.248 67.839,36.248 L67.839,36.248 L63.009,36.248 L63.009,32.913 L68.46,32.913 C68.7053333,32.913 68.8816667,32.821 68.989,32.637 C69.0963333,32.453 69.15,32.1616667 69.15,31.763 L69.15,31.763 L69.15,31.05 C69.15,30.6513333 69.0963333,30.36 68.989,30.176 C68.8816667,29.992 68.7053333,29.9 68.46,29.9 L68.46,29.9 L60.387,29.9 C60.065,29.9 59.8311667,29.9728333 59.6855,30.1185 C59.5398333,30.2641667 59.467,30.498 59.467,30.82 L59.467,30.82 L59.467,45.08 C59.467,45.402 59.5398333,45.6358333 59.6855,45.7815 C59.8311667,45.9271667 60.065,46 60.387,46 L60.387,46 L68.483,46 Z M76.165,46.184 C77.0696667,46.184 77.913,46.0153333 78.695,45.678 C79.477,45.3406667 80.1171667,44.7963333 80.6155,44.045 C81.1138333,43.2936667 81.363,42.3276667 81.363,41.147 C81.363,40.181 81.1598333,39.3875 80.7535,38.7665 C80.3471667,38.1455 79.868,37.6701667 79.316,37.3405 C78.764,37.0108333 78.051,36.662 77.177,36.294 C76.579,36.0333333 76.1266667,35.8225 75.82,35.6615 C75.5133333,35.5005 75.2526667,35.2896667 75.038,35.029 C74.8233333,34.7683333 74.716,34.4386667 74.716,34.04 C74.716,33.7026667 74.8731667,33.4036667 75.1875,33.143 C75.5018333,32.8823333 76.0576667,32.752 76.855,32.752 C77.453,32.752 78.028,32.844 78.58,33.028 C78.7026667,33.074 78.8521667,33.1353333 79.0285,33.212 C79.2048333,33.2886667 79.3313333,33.327 79.408,33.327 C79.5766667,33.327 79.7606667,33.2081667 79.96,32.9705 C80.1593333,32.7328333 80.328,32.453 80.466,32.131 C80.604,31.809 80.673,31.5406667 80.673,31.326 C80.673,31.0806667 80.5043333,30.8353333 80.167,30.59 C79.799,30.3293333 79.2968333,30.1185 78.6605,29.9575 C78.0241667,29.7965 77.315,29.716 76.533,29.716 C75.5823333,29.716 74.693,29.8808333 73.865,30.2105 C73.037,30.5401667 72.3661667,31.0538333 71.8525,31.7515 C71.3388333,32.4491667 71.082,33.3193333 71.082,34.362 C71.082,35.6193333 71.358,36.5891667 71.91,37.2715 C72.462,37.9538333 73.221,38.525 74.187,38.985 L74.187,38.985 L75.245,39.445 C76.119,39.7976667 76.7515,40.1158333 77.1425,40.3995 C77.5335,40.6831667 77.729,41.0703333 77.729,41.561 C77.729,42.159 77.5181667,42.5768333 77.0965,42.8145 C76.6748333,43.0521667 76.165,43.171 75.567,43.171 C75.0303333,43.171 74.5626667,43.102 74.164,42.964 C73.7653333,42.826 73.3206667,42.6343333 72.83,42.389 C72.4926667,42.205 72.278,42.113 72.186,42.113 C72.0326667,42.113 71.841,42.2356667 71.611,42.481 C71.381,42.7263333 71.1816667,43.01 71.013,43.332 C70.8443333,43.654 70.76,43.93 70.76,44.16 C70.76,44.4513333 70.9746667,44.7426667 71.404,45.034 C71.864,45.3713333 72.5003333,45.6473333 73.313,45.862 C74.1256667,46.0766667 75.0763333,46.184 76.165,46.184 Z M87.665,46.184 C88.5696667,46.184 89.413,46.0153333 90.195,45.678 C90.977,45.3406667 91.6171667,44.7963333 92.1155,44.045 C92.6138333,43.2936667 92.863,42.3276667 92.863,41.147 C92.863,40.181 92.6598333,39.3875 92.2535,38.7665 C91.8471667,38.1455 91.368,37.6701667 90.816,37.3405 C90.264,37.0108333 89.551,36.662 88.677,36.294 C88.079,36.0333333 87.6266667,35.8225 87.32,35.6615 C87.0133333,35.5005 86.7526667,35.2896667 86.538,35.029 C86.3233333,34.7683333 86.216,34.4386667 86.216,34.04 C86.216,33.7026667 86.3731667,33.4036667 86.6875,33.143 C87.0018333,32.8823333 87.5576667,32.752 88.355,32.752 C88.953,32.752 89.528,32.844 90.08,33.028 C90.2026667,33.074 90.3521667,33.1353333 90.5285,33.212 C90.7048333,33.2886667 90.8313333,33.327 90.908,33.327 C91.0766667,33.327 91.2606667,33.2081667 91.46,32.9705 C91.6593333,32.7328333 91.828,32.453 91.966,32.131 C92.104,31.809 92.173,31.5406667 92.173,31.326 C92.173,31.0806667 92.0043333,30.8353333 91.667,30.59 C91.299,30.3293333 90.7968333,30.1185 90.1605,29.9575 C89.5241667,29.7965 88.815,29.716 88.033,29.716 C87.0823333,29.716 86.193,29.8808333 85.365,30.2105 C84.537,30.5401667 83.8661667,31.0538333 83.3525,31.7515 C82.8388333,32.4491667 82.582,33.3193333 82.582,34.362 C82.582,35.6193333 82.858,36.5891667 83.41,37.2715 C83.962,37.9538333 84.721,38.525 85.687,38.985 L85.687,38.985 L86.745,39.445 C87.619,39.7976667 88.2515,40.1158333 88.6425,40.3995 C89.0335,40.6831667 89.229,41.0703333 89.229,41.561 C89.229,42.159 89.0181667,42.5768333 88.5965,42.8145 C88.1748333,43.0521667 87.665,43.171 87.067,43.171 C86.5303333,43.171 86.0626667,43.102 85.664,42.964 C85.2653333,42.826 84.8206667,42.6343333 84.33,42.389 C83.9926667,42.205 83.778,42.113 83.686,42.113 C83.5326667,42.113 83.341,42.2356667 83.111,42.481 C82.881,42.7263333 82.6816667,43.01 82.513,43.332 C82.3443333,43.654 82.26,43.93 82.26,44.16 C82.26,44.4513333 82.4746667,44.7426667 82.904,45.034 C83.364,45.3713333 84.0003333,45.6473333 84.813,45.862 C85.6256667,46.0766667 86.5763333,46.184 87.665,46.184 Z M96.911,46.069 C97.831,46.069 98.291,45.816 98.291,45.31 L98.291,45.31 L98.291,30.59 C98.291,30.084 97.831,29.831 96.911,29.831 L96.911,29.831 L96.106,29.831 C95.186,29.831 94.726,30.084 94.726,30.59 L94.726,30.59 L94.726,45.31 C94.726,45.816 95.186,46.069 96.106,46.069 L96.106,46.069 L96.911,46.069 Z M108.181,46.184 C110.557667,46.184 112.3785,45.4748333 113.6435,44.0565 C114.9085,42.6381667 115.541,40.6026667 115.541,37.95 C115.541,35.2973333 114.9085,33.2618333 113.6435,31.8435 C112.3785,30.4251667 110.557667,29.716 108.181,29.716 C105.804333,29.716 103.979667,30.4251667 102.707,31.8435 C101.434333,33.2618333 100.798,35.2973333 100.798,37.95 C100.798,40.6026667 101.434333,42.6381667 102.707,44.0565 C103.979667,45.4748333 105.804333,46.184 108.181,46.184 Z M108.181,43.171 C106.954333,43.171 106.022833,42.7263333 105.3865,41.837 C104.750167,40.9476667 104.432,39.652 104.432,37.95 C104.432,36.248 104.750167,34.9561667 105.3865,34.0745 C106.022833,33.1928333 106.954333,32.752 108.181,32.752 C109.407667,32.752 110.335333,33.1928333 110.964,34.0745 C111.592667,34.9561667 111.907,36.248 111.907,37.95 C111.907,39.652 111.592667,40.9476667 110.964,41.837 C110.335333,42.7263333 109.407667,43.171 108.181,43.171 Z M120.21,46.046 C121.13,46.046 121.59,45.8006667 121.59,45.31 L121.59,45.31 L121.589281,37.3081562 C121.585927,36.7413021 121.570833,36.3035833 121.544,35.995 L121.544,35.995 L121.636,35.972 C121.881333,36.432 122.157333,36.8843333 122.464,37.329 L122.464,37.329 L127.754,45.425 C127.907333,45.6703333 128.106667,45.8351667 128.352,45.9195 C128.597333,46.0038333 128.904,46.046 129.272,46.046 L129.272,46.046 L130.146,46.046 C131.066,46.046 131.526,45.8006667 131.526,45.31 L131.526,45.31 L131.526,30.59 C131.526,30.0993333 131.066,29.854 130.146,29.854 L130.146,29.854 L129.479,29.854 C128.559,29.854 128.099,30.0993333 128.099,30.59 L128.099,30.59 L128.099,38.226 C128.099,38.916 128.114333,39.4373333 128.145,39.79 L128.145,39.79 L128.053,39.813 C127.807667,39.353 127.531667,38.9006667 127.225,38.456 L127.225,38.456 L122.05,30.475 C121.896667,30.2296667 121.697333,30.0648333 121.452,29.9805 C121.206667,29.8961667 120.9,29.854 120.532,29.854 L120.532,29.854 L119.543,29.854 C118.623,29.854 118.163,30.0993333 118.163,30.59 L118.163,30.59 L118.163,45.31 C118.163,45.8006667 118.623,46.046 119.543,46.046 L119.543,46.046 L120.21,46.046 Z M139.024,46.184 C139.928667,46.184 140.772,46.0153333 141.554,45.678 C142.336,45.3406667 142.976167,44.7963333 143.4745,44.045 C143.972833,43.2936667 144.222,42.3276667 144.222,41.147 C144.222,40.181 144.018833,39.3875 143.6125,38.7665 C143.206167,38.1455 142.727,37.6701667 142.175,37.3405 C141.623,37.0108333 140.91,36.662 140.036,36.294 C139.438,36.0333333 138.985667,35.8225 138.679,35.6615 C138.372333,35.5005 138.111667,35.2896667 137.897,35.029 C137.682333,34.7683333 137.575,34.4386667 137.575,34.04 C137.575,33.7026667 137.732167,33.4036667 138.0465,33.143 C138.360833,32.8823333 138.916667,32.752 139.714,32.752 C140.312,32.752 140.887,32.844 141.439,33.028 C141.561667,33.074 141.711167,33.1353333 141.8875,33.212 C142.063833,33.2886667 142.190333,33.327 142.267,33.327 C142.435667,33.327 142.619667,33.2081667 142.819,32.9705 C143.018333,32.7328333 143.187,32.453 143.325,32.131 C143.463,31.809 143.532,31.5406667 143.532,31.326 C143.532,31.0806667 143.363333,30.8353333 143.026,30.59 C142.658,30.3293333 142.155833,30.1185 141.5195,29.9575 C140.883167,29.7965 140.174,29.716 139.392,29.716 C138.441333,29.716 137.552,29.8808333 136.724,30.2105 C135.896,30.5401667 135.225167,31.0538333 134.7115,31.7515 C134.197833,32.4491667 133.941,33.3193333 133.941,34.362 C133.941,35.6193333 134.217,36.5891667 134.769,37.2715 C135.321,37.9538333 136.08,38.525 137.046,38.985 L137.046,38.985 L138.104,39.445 C138.978,39.7976667 139.6105,40.1158333 140.0015,40.3995 C140.3925,40.6831667 140.588,41.0703333 140.588,41.561 C140.588,42.159 140.377167,42.5768333 139.9555,42.8145 C139.533833,43.0521667 139.024,43.171 138.426,43.171 C137.889333,43.171 137.421667,43.102 137.023,42.964 C136.624333,42.826 136.179667,42.6343333 135.689,42.389 C135.351667,42.205 135.137,42.113 135.045,42.113 C134.891667,42.113 134.7,42.2356667 134.47,42.481 C134.24,42.7263333 134.040667,43.01 133.872,43.332 C133.703333,43.654 133.619,43.93 133.619,44.16 C133.619,44.4513333 133.833667,44.7426667 134.263,45.034 C134.723,45.3713333 135.359333,45.6473333 136.172,45.862 C136.984667,46.0766667 137.935333,46.184 139.024,46.184 Z" id="CONFESSIONS" fill="#3F00F0"></path>
        </g>
    </g>
</svg>