<?xml version="1.0" encoding="UTF-8"?>
<svg width="25px" height="25px" viewBox="0 0 25 25" version="1.1" xmlns="http://www.w3.org/2000/svg" xmlns:xlink="http://www.w3.org/1999/xlink">
    <title>facebook</title>
    <g id="facebook" stroke="none" stroke-width="1" fill-rule="evenodd">
        <path d="M12.5,2 C6.701375,2 2,6.72559367 2,12.5540897 C2,17.8452067 5.878,22.2145998 10.93025,22.9780123 L10.93025,15.3509235 L8.332375,15.3509235 L8.332375,12.5769569 L10.93025,12.5769569 L10.93025,10.7308707 C10.93025,7.67458223 12.411625,6.33333333 14.938625,6.33333333 C16.14875,6.33333333 16.78925,6.4239226 17.092,6.46437995 L17.092,8.88566403 L15.36825,8.88566403 C14.2955,8.88566403 13.921,9.90853122 13.921,11.060686 L13.921,12.5769569 L17.064875,12.5769569 L16.63875,15.3509235 L13.921,15.3509235 L13.921,23 C19.045875,22.3016711 23,17.8970976 23,12.5540897 C23,6.72559367 18.298625,2 12.5,2 Z" id="Path" fill-rule="nonzero"></path>
    </g>
</svg>