<svg xmlns="http://www.w3.org/2000/svg" width="22" height="24" viewBox="0 0 22 24">
  <path fill-rule="evenodd" d="M8.85,24 C6.73598437,24 4.95,22.2140156 4.95,20.1 L4.95,16.0605 C4.62604688,16.1243438 4.27621875,16.1625 3.9,16.1625 C1.65403125,16.1625 0,14.5185 0,11.85 C0,9.72590625 2.27517187,9.17803125 3.69304687,8.30123437 C4.27485938,7.93865625 4.78598437,7.50459375 5.25178125,7.08946875 L5.258625,7.08332812 L5.2655625,7.07728125 C6.08470312,6.35910938 6.375,5.98889062 6.375,5.66245313 L6.375,5.536875 C6.142875,5.26748438 6,4.902375 6,4.5 L6,1.5 C6,0.671578125 6.60440625,0 7.35,0 L18.15,0 C18.8955937,0 19.5,0.671578125 19.5,1.5 L19.5,4.50004687 C19.5,4.90242187 19.357125,5.26753125 19.125,5.53692187 L19.125,5.6625 C19.125,7.00725 21,8.80954688 21,11.625 L21,12.6233906 C21,15.5550469 19.1879062,17.2546875 16.7275781,17.3080781 C15.8925938,17.8931719 14.8157813,18.1748906 13.78425,18.057375 C13.4565299,18.2243313 13.1090279,18.3492109 12.75,18.4290469 L12.75,20.1 C12.75,22.2297656 10.98825,24 8.85,24 Z M8.85,21.75 C9.73945312,21.75 10.5,20.9894531 10.5,20.1 L10.5,15.8332031 C11.1876094,16.4349375 12.5074219,16.5089063 13.3617187,15.6011719 C14.282625,16.1273906 15.5003438,15.68025 15.8753906,14.9953125 C17.7095156,15.3010781 18.75,14.5229531 18.75,12.6233906 L18.75,11.625 C18.75,9.49260938 17.0665781,8.00578125 16.8901406,6 L8.60489063,6 C8.466,7.18307813 7.61010938,8.01403125 6.74882813,8.76914063 C6.15585938,9.29765625 5.56289063,9.7875 4.8796875,10.2128437 C3.783375,10.8916406 2.25,11.4377812 2.25,11.85 C2.25,12.9457031 2.6625,13.9125 3.9,13.9125 C5.55,13.9125 6.38789063,12.675 7.2,12.675 L7.2,20.1 C7.2,20.9636719 7.9734375,21.75 8.85,21.75 Z M15.375,3 C15.375,3.62132812 15.8786719,4.125 16.5,4.125 C17.1213281,4.125 17.625,3.62132812 17.625,3 C17.625,2.37867187 17.1213281,1.875 16.5,1.875 C15.8786719,1.875 15.375,2.37867187 15.375,3 Z" transform="translate(.5)"/>
</svg>
