<?xml version="1.0" encoding="UTF-8"?>
<svg width="39px" height="20px" viewBox="0 0 39 20" version="1.1" xmlns="http://www.w3.org/2000/svg" xmlns:xlink="http://www.w3.org/1999/xlink">
    <title>iconmonstr-user-31</title>
    <g id="Page-1" stroke="none" stroke-width="1" fill-rule="evenodd">
        <g id="iconmonstr-user-31" transform="translate(0.000000, -0.000000)" fill-rule="nonzero">
            <path d="M12.644,15.08 C15.51,14.418 17.183,13.839 15.89,11.398 C11.958,3.971 14.848,0 19.001,0 C23.236,0 26.055,4.124 22.111,11.398 C20.779,13.853 22.548,14.432 25.353,15.08 C27.836,15.654 28,16.867 28,18.969 L28,20 L10,20 C10,17.255 9.78,15.742 12.644,15.08 Z M38.245,20 L30.436,20 C30.471,11.823 27,14.687 27,8.873 C27,6.362 28.639,5 30.748,5 C33.863,5 36.03,7.979 33.081,13.549 C32.112,15.379 34.112,15.814 36.262,16.31 C38.124,16.74 38.245,17.65 38.245,19.227 L38.245,20 Z M0,20 L7.809,20 C7.774,11.823 11.245,14.687 11.245,8.873 C11.245,6.362 9.606,5 7.497,5 C4.382,5 2.215,7.979 5.164,13.549 C6.133,15.379 4.133,15.814 1.983,16.31 C0.121,16.74 0,17.65 0,19.227 L0,20 Z" id="Shape"></path>
        </g>
    </g>
</svg>