<?xml version="1.0" encoding="UTF-8"?>
<svg width="25px" height="25px" viewBox="0 0 25 25" version="1.1" xmlns="http://www.w3.org/2000/svg" xmlns:xlink="http://www.w3.org/1999/xlink">
    <title>instagram</title>
    <g id="instagram" stroke="none" stroke-width="1" fill-rule="evenodd">
        <path d="M8.12329104,2 C4.74666604,2 2,4.74920896 2,8.12670888 L2,16.8767089 C2,20.2533339 4.74920896,23 8.12670888,23 L16.8767089,23 C20.2533339,23 23,20.2507911 23,16.8732911 L23,8.12329104 C23,4.74666604 20.2507911,2 16.8732911,2 L8.12329104,2 Z M18.625,5.5 C19.108,5.5 19.5,5.892 19.5,6.375 C19.5,6.858 19.108,7.25 18.625,7.25 C18.142,7.25 17.75,6.858 17.75,6.375 C17.75,5.892 18.142,5.5 18.625,5.5 Z M12.5,7.25 C15.395375,7.25 17.75,9.604625 17.75,12.5 C17.75,15.395375 15.395375,17.75 12.5,17.75 C9.604625,17.75 7.25,15.395375 7.25,12.5 C7.25,9.604625 9.604625,7.25 12.5,7.25 Z M12.5,9 C10.5670034,9 9,10.5670034 9,12.5 C9,14.4329966 10.5670034,16 12.5,16 C14.4329966,16 16,14.4329966 16,12.5 C16,10.5670034 14.4329966,9 12.5,9 Z" id="Shape" fill-rule="nonzero"></path>
    </g>
</svg>