<?xml version="1.0" encoding="UTF-8"?>
<svg width="25px" height="25px" viewBox="0 0 25 25" version="1.1" xmlns="http://www.w3.org/2000/svg" xmlns:xlink="http://www.w3.org/1999/xlink">
    <title>pinterest</title>
    <g id="pinterest" stroke="none" stroke-width="1" fill-rule="evenodd">
        <path d="M12.5,2 C6.701375,2 2,6.7005 2,12.5 C2,16.9485 4.767625,20.74775 8.673625,22.27725 C8.58175,21.446875 8.498625,20.172875 8.710375,19.266375 C8.901125,18.4465 9.9415,14.047 9.9415,14.047 C9.9415,14.047 9.627375,13.417875 9.627375,12.48775 C9.627375,11.02825 10.4735,9.938 11.527,9.938 C12.422125,9.938 12.85525,10.610875 12.85525,11.41675 C12.85525,12.317125 12.282125,13.66375 11.9855,14.912375 C11.737875,15.957125 12.509625,16.81025 13.540375,16.81025 C15.40675,16.81025 16.840875,14.842375 16.840875,12.002125 C16.840875,9.48825 15.034875,7.730375 12.455375,7.730375 C9.468125,7.730375 7.714625,9.97125 7.714625,12.2865 C7.714625,13.188625 8.062,14.15725 8.496,14.68225 C8.58175,14.786375 8.594,14.87825 8.568625,14.984125 L8.27725,16.174125 C8.230875,16.366625 8.125,16.40775 7.9255,16.315 C6.613875,15.70425 5.794,13.787125 5.794,12.247125 C5.794,8.93525 8.20025,5.892875 12.731875,5.892875 C16.3745,5.892875 19.205125,8.489 19.205125,11.9575 C19.205125,15.5765 16.924,18.4885 13.7565,18.4885 C12.6925,18.4885 11.692375,17.936375 11.35025,17.28275 L10.69575,19.779125 C10.458625,20.69175 9.819,21.835375 9.39025,22.531875 C10.37375,22.8355 11.417625,23 12.5,23 C18.298625,23 23,18.298625 23,12.5 C23,6.7005 18.298625,2 12.5,2 Z" id="Path" fill-rule="nonzero"></path>
    </g>
</svg>