<?xml version="1.0" encoding="UTF-8"?>
<svg width="25px" height="25px" viewBox="0 0 25 25" version="1.1" xmlns="http://www.w3.org/2000/svg" xmlns:xlink="http://www.w3.org/1999/xlink">
    <title>twitter</title>
    <g id="twitter" stroke="none" stroke-width="1" fill-rule="evenodd">
        <path d="M25,5.35977538 C24.0641281,5.76842974 23.1241865,6.07692308 22.0825198,6.18109026 C23.1241865,5.56410256 23.9583333,4.53846154 24.3733729,3.40865436 C23.3317062,4.02564103 22.2900396,4.43429538 21.1466469,4.64262872 C20.1049802,3.61698769 18.75,3 17.2932948,3 C14.4775396,3 12.1866865,5.25560923 12.1866865,8.02403897 C12.1866865,8.43669846 12.1866865,8.84535282 12.2924802,9.15384615 C8.02001979,8.94951897 4.27246146,6.99839795 1.77001979,3.92147487 C1.24918646,4.64262872 1.04166667,5.56410256 1.04166667,6.48557744 C1.04166667,8.23237231 1.97753958,9.77083385 3.33251979,10.6923077 C2.49837292,10.5881415 1.66829479,10.3838144 1.04166667,10.075321 C1.04166667,10.075321 1.04166667,10.075321 1.04166667,10.1794872 C1.04166667,12.6394236 2.81168646,14.6907056 5.10253958,15.1033651 C4.6875,15.2035262 4.27246146,15.3076923 3.75162812,15.3076923 C3.43831354,15.3076923 3.125,15.3076923 2.81168646,15.2035262 C3.43831354,17.2548082 5.31412812,18.6931087 7.60498021,18.6931087 C5.83496146,20.0272441 3.64583333,20.8445518 1.24918646,20.8445518 C0.834146875,20.8445518 0.415039583,20.8445518 0,20.7443908 C2.29085312,22.1786862 5.00081354,23 7.8125,23 C17.2932948,23 22.3958333,15.3076923 22.3958333,8.64102564 C22.3958333,8.43669846 22.3958333,8.23237231 22.3958333,8.02403897 C23.4375,7.30689128 24.2716469,6.38541641 25,5.35977538" id="Path" fill-rule="nonzero"></path>
    </g>
</svg>