<?xml version="1.0" encoding="UTF-8"?>
<svg width="25px" height="25px" viewBox="0 0 25 25" version="1.1" xmlns="http://www.w3.org/2000/svg" xmlns:xlink="http://www.w3.org/1999/xlink">
    <title>linkedin</title>
    <g id="linkedin" stroke="none" stroke-width="1" fill-rule="evenodd">
        <path d="M18.8333333,3 L7.16666667,3 C4.86583333,3 3,4.86583333 3,7.16666667 L3,18.8333333 C3,21.1341667 4.86583333,23 7.16666667,23 L18.8333333,23 C21.135,23 23,21.1341667 23,18.8333333 L23,7.16666667 C23,4.86583333 21.135,3 18.8333333,3 Z M9.66666667,18.8333333 L7.16666667,18.8333333 L7.16666667,9.66666667 L9.66666667,9.66666667 L9.66666667,18.8333333 Z M8.41666667,8.61 C7.61166667,8.61 6.95833333,7.95166667 6.95833333,7.14 C6.95833333,6.32833333 7.61166667,5.67 8.41666667,5.67 C9.22166667,5.67 9.875,6.32833333 9.875,7.14 C9.875,7.95166667 9.2225,8.61 8.41666667,8.61 Z M19.6666667,18.8333333 L17.1666667,18.8333333 L17.1666667,14.1633333 C17.1666667,11.3566667 13.8333333,11.5691667 13.8333333,14.1633333 L13.8333333,18.8333333 L11.3333333,18.8333333 L11.3333333,9.66666667 L13.8333333,9.66666667 L13.8333333,11.1375 C14.9966667,8.9825 19.6666667,8.82333333 19.6666667,13.2008333 L19.6666667,18.8333333 Z" id="Shape" fill-rule="nonzero"></path>
    </g>
</svg>